# Blender 4.5.4 LTS
# www.blender.org
mtllib keyfrombigt.mtl
o Cube.002
v -0.250000 -0.242309 1.937986
v -0.250000 -0.242309 1.830247
v -0.250000 -0.242309 1.556915
v -0.250000 -0.242309 1.290438
v -0.250000 -0.242309 0.909367
v -0.250000 0.242309 1.830247
v -0.250000 0.711278 1.937986
v -0.250000 0.711278 1.556915
v -0.250000 0.711278 1.290438
v -0.250000 0.000000 0.749533
v -0.250000 0.711278 0.909367
v -0.250000 -0.749533 0.000000
v -0.250000 -0.494975 0.000000
v -0.250000 -0.242309 0.252665
v -0.250000 0.000000 0.494975
v -0.250000 0.000000 0.494975
v -0.250000 0.242309 0.252665
v -0.250000 0.494975 0.000000
v -0.250000 0.749533 0.000000
v -0.250000 0.000000 -0.494975
v -0.250000 0.000000 -0.749533
v 0.250000 -0.242309 1.937986
v 0.250000 -0.242309 1.830247
v 0.250000 -0.242309 1.556915
v 0.250000 -0.242309 1.290438
v 0.250000 -0.242309 0.909367
v 0.250000 0.242309 1.830247
v 0.250000 0.711278 1.937986
v 0.250000 0.711278 1.556915
v 0.250000 0.711278 1.290438
v 0.250000 0.000000 0.749533
v 0.250000 0.711278 0.909367
v 0.250000 -0.749533 0.000000
v 0.250000 -0.494975 0.000000
v 0.250000 -0.242309 0.252665
v 0.250000 0.000000 0.494975
v 0.250000 0.000000 0.494975
v 0.250000 0.242309 0.252665
v 0.250000 0.494975 0.000000
v 0.250000 0.749533 0.000000
v 0.250000 0.000000 -0.494975
v 0.250000 0.000000 -0.749533
vn -0.0000 1.0000 -0.0000
vn -0.0000 -0.0000 1.0000
vn -1.0000 -0.0000 -0.0000
vn -0.0000 -1.0000 -0.0000
vn 1.0000 -0.0000 -0.0000
vn -0.0000 0.7071 -0.7071
vn -0.0000 0.7071 0.7071
vn -0.0000 -0.7071 0.7071
vn -0.0000 -0.7071 -0.7071
vn -0.0000 -0.0000 -1.0000
vt 0.875000 0.750000
vt 0.625000 0.750000
vt 0.625000 0.552802
vt 0.875000 0.552802
vt 0.625000 1.000000
vt 0.375000 1.000000
vt 0.375000 0.750000
vt 0.375000 0.000000
vt 0.625000 0.000000
vt 0.625000 0.197198
vt 0.500000 0.166909
vt 0.375000 0.197198
vt 0.125000 0.750000
vt 0.125000 0.552802
vt 0.375000 0.552802
vt 0.500000 0.583091
vt 0.625000 0.500000
vt 0.875000 0.500000
vt 0.375000 0.250000
vt 0.582547 0.042453
vt 0.417453 0.042453
vt 0.417453 0.207547
vt 0.582547 0.207547
vt 0.625000 0.250000
vt 0.125000 0.500000
vt 0.375000 0.500000
vt 0.582547 0.542453
vt 0.417453 0.542453
vt 0.417453 0.707547
vt 0.582547 0.707547
vt 0.795956 0.750000
vt 0.795956 0.500000
vt 0.704044 0.500000
vt 0.704044 0.750000
vt 0.375000 0.920956
vt 0.625000 0.920956
vt 0.625000 0.829044
vt 0.375000 0.829044
vt 0.497385 0.920956
vt 0.497385 0.829044
vt 0.204044 0.500000
vt 0.204044 0.750000
vt 0.295956 0.750000
vt 0.295956 0.627615
vt 0.204044 0.627615
vt 0.295956 0.500000
vt 0.625000 0.329044
vt 0.375000 0.329044
vt 0.375000 0.420956
vt 0.625000 0.420956
s 0
usemtl Material.002
f 6/1/1 27/2/1 38/3/1 17/4/1
f 6/5/2 2/6/2 23/7/2 27/2/2
f 2/8/3 6/9/3 17/10/3 15/11/3 14/12/3
f 2/13/4 14/14/4 35/15/4 23/7/4
f 27/2/5 23/7/5 35/15/5 36/16/5 38/3/5
f 18/31/8 20/32/8 41/33/8 39/34/8
f 16/35/9 18/36/9 39/37/9 37/38/9 15/35/9 17/39/9 38/40/9 36/38/9
f 13/41/6 16/42/6 36/43/6 35/44/6 14/45/6 15/42/6 37/43/6 34/46/6
f 20/47/7 13/48/7 34/49/7 41/50/7
usemtl Material.001
f 42/17/6 21/18/6 19/1/6 40/2/6
f 19/5/7 10/6/7 31/7/7 40/2/7
f 12/19/3 10/8/3 19/9/3 18/20/3 16/21/3 13/22/3 20/23/3 21/24/3
f 19/9/3 21/24/3 20/23/3 18/20/3
f 31/7/8 10/13/8 12/25/8 33/26/8
f 31/7/5 33/26/5 42/17/5 41/27/5 34/28/5 37/29/5 39/30/5 40/2/5
f 40/2/5 39/30/5 41/27/5 42/17/5
f 12/19/9 21/24/9 42/17/9 33/26/9
usemtl Material.003
f 29/17/1 8/18/1 7/1/1 28/2/1
f 7/5/2 1/6/2 22/7/2 28/2/2
f 8/24/3 3/19/3 1/8/3 7/9/3
f 22/7/4 1/13/4 3/25/4 24/26/4
f 28/2/5 22/7/5 24/26/5 29/17/5
f 3/19/10 8/24/10 29/17/10 24/26/10
usemtl Material.004
f 32/17/1 11/18/1 9/1/1 30/2/1
f 9/5/2 4/6/2 25/7/2 30/2/2
f 11/24/3 5/19/3 4/8/3 9/9/3
f 25/7/4 4/13/4 5/25/4 26/26/4
f 30/2/5 25/7/5 26/26/5 32/17/5
f 5/19/10 11/24/10 32/17/10 26/26/10
