# Blender 4.5.4 LTS
# www.blender.org
mtllib keyFN.mtl
o Cube.002
v -0.250000 -0.242309 1.937986
v -0.250000 -0.242309 1.830247
v -0.250000 -0.242309 1.556915
v -0.250000 -0.242309 1.290438
v -0.250000 -0.242309 0.909367
v -0.250000 0.242309 1.830247
v -0.250000 0.711278 1.937986
v -0.250000 0.711278 1.556915
v -0.250000 0.711278 1.290438
v -0.250000 0.000000 0.749533
v -0.250000 0.711278 0.909367
v -0.250000 -0.749533 0.000000
v -0.250000 -0.296985 0.000000
v -0.250000 -0.242309 0.054675
v -0.250000 -0.242309 -0.054675
v -0.250000 -0.242309 -0.169753
v -0.250000 -0.127231 -0.169753
v -0.250000 0.000000 0.296985
v -0.250000 0.000000 0.296985
v -0.250000 0.242309 0.054675
v -0.250000 0.242309 -0.054675
v -0.250000 0.296985 0.000000
v -0.250000 0.749533 0.000000
v -0.250000 0.127231 -0.169753
v -0.250000 0.000000 -0.296985
v -0.250000 0.242309 -0.169753
v -0.250000 0.000000 -0.749533
v 0.250000 -0.242309 1.937986
v 0.250000 -0.242309 1.830247
v 0.250000 -0.242309 1.556915
v 0.250000 -0.242309 1.290438
v 0.250000 -0.242309 0.909367
v 0.250000 0.242309 1.830247
v 0.250000 0.711278 1.937986
v 0.250000 0.711278 1.556915
v 0.250000 0.711278 1.290438
v 0.250000 0.000000 0.749533
v 0.250000 0.711278 0.909367
v 0.250000 -0.749533 0.000000
v 0.250000 -0.296985 0.000000
v 0.250000 -0.242309 0.054675
v 0.250000 -0.242309 -0.054675
v 0.250000 -0.242309 -0.169753
v 0.250000 -0.127231 -0.169753
v 0.250000 0.000000 0.296985
v 0.250000 0.000000 0.296985
v 0.250000 0.242309 0.054675
v 0.250000 0.242309 -0.054675
v 0.250000 0.296985 0.000000
v 0.250000 0.749533 0.000000
v 0.250000 0.127231 -0.169753
v 0.250000 0.000000 -0.296985
v 0.250000 0.242309 -0.169753
v 0.250000 0.000000 -0.749533
vn -0.0000 1.0000 -0.0000
vn -0.0000 -0.0000 1.0000
vn -1.0000 -0.0000 -0.0000
vn -0.0000 -1.0000 -0.0000
vn 1.0000 -0.0000 -0.0000
vn -0.0000 -0.0000 -1.0000
vn -0.0000 0.7071 -0.7071
vn -0.0000 0.7071 0.7071
vn -0.0000 -0.7071 0.7071
vn -0.0000 -0.7071 -0.7071
vt 0.875000 0.750000
vt 0.625000 0.750000
vt 0.625000 0.528054
vt 0.875000 0.528054
vt 0.875000 0.500000
vt 0.875000 0.514385
vt 0.625000 0.514385
vt 0.625000 0.500000
vt 0.625000 1.000000
vt 0.375000 1.000000
vt 0.375000 0.750000
vt 0.375000 0.000000
vt 0.625000 0.000000
vt 0.625000 0.221946
vt 0.500000 0.191658
vt 0.375000 0.221946
vt 0.375000 0.250000
vt 0.375000 0.235615
vt 0.434365 0.250000
vt 0.625000 0.250000
vt 0.565635 0.250000
vt 0.625000 0.235615
vt 0.125000 0.750000
vt 0.125000 0.528054
vt 0.375000 0.528054
vt 0.125000 0.500000
vt 0.375000 0.500000
vt 0.375000 0.514385
vt 0.125000 0.514385
vt 0.500000 0.558342
vt 0.434365 0.500000
vt 0.565635 0.500000
vt 0.450472 0.174528
vt 0.549528 0.174528
vt 0.549528 0.075472
vt 0.450472 0.075472
vt 0.549528 0.575472
vt 0.450472 0.575472
vt 0.450472 0.674528
vt 0.549528 0.674528
vt 0.795956 0.703975
vt 0.795956 0.607103
vt 0.704044 0.607103
vt 0.704044 0.703975
vt 0.795956 0.750000
vt 0.795956 0.500000
vt 0.704044 0.500000
vt 0.704044 0.750000
vt 0.375000 0.920956
vt 0.578975 0.920956
vt 0.578975 0.829044
vt 0.375000 0.829044
vt 0.625000 0.920956
vt 0.625000 0.829044
vt 0.204044 0.500000
vt 0.204044 0.750000
vt 0.295956 0.750000
vt 0.295956 0.546025
vt 0.204044 0.546025
vt 0.295956 0.500000
vt 0.421025 0.329044
vt 0.421025 0.420956
vt 0.517897 0.420956
vt 0.517897 0.329044
vt 0.625000 0.329044
vt 0.375000 0.329044
vt 0.375000 0.420956
vt 0.625000 0.420956
s 0
usemtl Material.002
f 6/1/1 33/2/1 47/3/1 20/4/1
f 26/5/1 21/6/1 48/7/1 53/8/1
f 6/9/2 2/10/2 29/11/2 33/2/2
f 2/12/3 6/13/3 20/14/3 18/15/3 14/16/3
f 16/17/3 15/18/3 17/19/3
f 26/20/3 24/21/3 21/22/3
f 2/23/4 14/24/4 41/25/4 29/11/4
f 16/26/4 43/27/4 42/28/4 15/29/4
f 33/2/5 29/11/5 41/25/5 45/30/5 47/3/5
f 43/27/5 44/31/5 42/28/5
f 53/8/5 48/7/5 51/32/5
f 16/17/6 17/19/6 44/31/6 43/27/6
f 26/20/6 53/8/6 51/32/6 24/21/6
f 21/41/9 24/42/9 51/43/9 48/44/9
f 22/45/9 25/46/9 52/47/9 49/48/9
f 18/49/10 20/50/10 47/51/10 45/52/10 19/49/10 22/53/10 49/54/10 46/52/10
f 13/55/7 19/56/7 45/57/7 41/58/7 14/59/7 18/56/7 46/57/7 40/60/7
f 15/61/8 42/62/8 44/63/8 17/64/8
f 25/65/8 13/66/8 40/67/8 52/68/8
usemtl Material.001
f 54/8/7 27/5/7 23/1/7 50/2/7
f 23/9/8 10/10/8 37/11/8 50/2/8
f 13/33/3 25/34/3 27/20/3 12/17/3 10/12/3 23/13/3 22/35/3 19/36/3
f 23/13/3 27/20/3 25/34/3 22/35/3
f 37/11/9 10/23/9 12/26/9 39/27/9
f 37/11/5 39/27/5 54/8/5 52/37/5 40/38/5 46/39/5 49/40/5 50/2/5
f 50/2/5 49/40/5 52/37/5 54/8/5
f 12/17/10 27/20/10 54/8/10 39/27/10
usemtl Material.003
f 35/8/1 8/5/1 7/1/1 34/2/1
f 7/9/2 1/10/2 28/11/2 34/2/2
f 8/20/3 3/17/3 1/12/3 7/13/3
f 28/11/4 1/23/4 3/26/4 30/27/4
f 34/2/5 28/11/5 30/27/5 35/8/5
f 3/17/6 8/20/6 35/8/6 30/27/6
usemtl Material.004
f 38/8/1 11/5/1 9/1/1 36/2/1
f 9/9/2 4/10/2 31/11/2 36/2/2
f 11/20/3 5/17/3 4/12/3 9/13/3
f 31/11/4 4/23/4 5/26/4 32/27/4
f 36/2/5 31/11/5 32/27/5 38/8/5
f 5/17/6 11/20/6 38/8/6 32/27/6
